<svg xmlns="http://www.w3.org/2000/svg" width="18" height="20" viewBox="0 0 18 20">
    <path fill="#000" fill-rule="nonzero" d="M16.712 12.324l-1.474-1.475-6.634-6.633a3.127 3.127 0 0 0-4.422 4.422l6.633 6.636a.695.695 0 1 0 .983-.983L5.165 7.656a1.737 1.737 0 1 1 2.457-2.457l6.635 6.633 1.474 1.474a3.128 3.128 0 1 1-4.424 4.423L10.079 16.5l-6.88-6.879-.49-.491a4.517 4.517 0 0 1 6.387-6.388l7.37 7.37a.695.695 0 0 0 .983-.982l-7.37-7.37a5.906 5.906 0 0 0-8.354 8.353l7.37 7.37 1.23 1.229a4.517 4.517 0 0 0 6.387-6.388z"/>
</svg>
