<svg height="512" viewBox="0 0 64 64" width="512" xmlns="http://www.w3.org/2000/svg"><path d="m55 11v32h-46v-32a2.006 2.006 0 0 1 2-2h42a2.006 2.006 0 0 1 2 2z" fill="#acabb1"/><path d="m13 13h38v26h-38z" fill="#5aaae7"/><path d="m13 13h38v26h-38z" fill="#5aaae7"/><path d="m51 13v26h-38c20.507-2.341 32.71-11.381 38-26z" fill="#3d9ae2"/><path d="m36 55h-33v5a1 1 0 0 0 1 1h56a1 1 0 0 0 1-1v-5z" fill="#d8d7da"/><path d="m11 55h50a0 0 0 0 1 0 0v4a0 0 0 0 1 0 0h-48a2 2 0 0 1 -2-2v-2a0 0 0 0 1 0 0z" fill="#c6c5ca"/><path d="m55 43 6 12h-25-8-25l6-12z" fill="#bbbabf"/><path d="m36 55v2a1 1 0 0 1 -1 1h-6a1 1 0 0 1 -1-1v-2z" fill="#898890"/><path d="m45 3h-26a2.006 2.006 0 0 0 -2 2v16h30v-16a2.006 2.006 0 0 0 -2-2z" fill="#ffde55"/><path d="m38 31a2.015 2.015 0 0 1 2 2 2.006 2.006 0 0 1 -2 2h-12a2.015 2.015 0 0 1 -2-2 2.006 2.006 0 0 1 2-2z" fill="#898890"/><path d="m28 25h8v6h-8z" fill="#acabb1"/><path d="m47 21v2a2.006 2.006 0 0 1 -2 2h-26a2.006 2.006 0 0 1 -2-2v-2z" fill="#c6c5ca"/><g fill="#898890"><path d="m10 50h2v2h-2z"/><path d="m14 50h2v2h-2z"/><path d="m18 50h28v2h-28z"/><path d="m48 50h2v2h-2z"/><path d="m52 50h2v2h-2z"/><path d="m15 46h2v2h-2z"/><path d="m11 46h2v2h-2z"/><path d="m19 46h2v2h-2z"/><path d="m23 46h2v2h-2z"/><path d="m27 46h2v2h-2z"/><path d="m31 46h2v2h-2z"/><path d="m35 46h2v2h-2z"/><path d="m39 46h2v2h-2z"/><path d="m43 46h2v2h-2z"/><path d="m47 46h2v2h-2z"/><path d="m51 46h2v2h-2z"/></g><path d="m31 12h2v2h-2z" fill="#ebbf00"/><path d="m35 12h2v2h-2z" fill="#ebbf00"/><path d="m27 12h2v2h-2z" fill="#ebbf00"/><path d="m58 30h2v2h-2z" fill="#5aaae7"/><path d="m4 30h2v2h-2z" fill="#5aaae7"/><path d="m4 24h2v2h-2z" fill="#5aaae7"/><path d="m4 18h2v2h-2z" fill="#5aaae7"/><path d="m58 24h2v2h-2z" fill="#5aaae7"/><path d="m58 18h2v2h-2z" fill="#5aaae7"/><path d="m57 5h2v2h-2z" fill="#5aaae7"/><path d="m5 5h2v2h-2z" fill="#5aaae7"/></svg>