<svg id="Capa_1" enable-background="new 0 0 512 512" height="512" viewBox="0 0 512 512" width="512" xmlns="http://www.w3.org/2000/svg"><g><g><path d="m499.051 251.851c-125.628-174.885-360.473-174.885-486.101 0-.988 1.375-1.971 2.762-2.95 4.159.978 1.397 1.961 2.783 2.949 4.159 125.628 174.885 360.473 174.885 486.101 0 .988-1.376 1.971-2.762 2.95-4.159-.978-1.397-1.961-2.783-2.949-4.159z" fill="#f9f5f3"/><path d="m502 256.013c-.981 1.392-1.963 2.784-2.954 4.156-125.622 174.887-360.47 174.887-486.091 0-.992-1.372-1.973-2.764-2.955-4.156.981-1.402 1.963-2.784 2.955-4.166 44.818-62.395 103.548-102.526 166.263-120.393 50.337-14.352 103.227-14.352 153.564 0 62.715 17.857 121.445 57.998 166.273 120.393.982 1.382 1.964 2.764 2.945 4.166z" fill="#f9f5f3"/><path d="m369.548 215.091c0 62.706-50.838 113.543-113.553 113.543-62.706 0-113.543-50.837-113.543-113.543 0-33.101 14.162-62.896 36.766-83.638 50.337-14.352 103.227-14.352 153.564 0 22.605 20.742 36.766 50.538 36.766 83.638z" fill="#80b4ff"/><circle cx="256.376" cy="212.807" fill="#868eaf" r="41.688"/></g><g><g><path d="m510.191 250.275c-1.002-1.432-2.009-2.851-3.019-4.257-61.781-86.004-153.329-135.33-251.172-135.33-.006 0 .005 0-.001 0-97.836 0-189.395 49.33-251.172 135.329-1.012 1.409-2.019 2.828-3.021 4.259-2.41 3.444-2.41 8.028.002 11.471 1.001 1.431 2.008 2.851 3.019 4.256 51.607 71.843 124.423 118.584 205.034 131.614 5.453.878 10.586-2.824 11.468-8.276.881-5.452-2.824-10.586-8.276-11.468-74.695-12.073-142.367-55.32-190.771-121.862 34.355-47.228 78.24-82.5 127.175-103.396-11.002 18.784-17.005 40.353-17.005 62.477 0 68.122 55.421 123.543 123.543 123.543 68.127 0 123.553-55.421 123.553-123.543 0-22.124-6.003-43.694-17.006-62.478 48.935 20.896 92.82 56.167 127.176 103.397-48.665 66.905-116.733 110.215-191.886 122.041-5.456.859-9.183 5.978-8.324 11.434.776 4.929 5.029 8.447 9.866 8.447.517 0 1.041-.041 1.567-.123 81.102-12.764 154.343-59.573 206.232-131.808 1.01-1.406 2.016-2.824 3.016-4.253 2.414-3.444 2.415-8.03.002-11.474zm-150.643-35.184c0 57.094-46.453 103.543-103.553 103.543-57.094 0-103.543-46.449-103.543-103.543 0-28.135 11.567-55.211 31.815-74.662 46.729-12.897 96.738-12.913 143.466 0 20.248 19.451 31.815 46.527 31.815 74.662z"/><path d="m256.376 161.119c-28.5 0-51.688 23.187-51.688 51.688s23.187 51.687 51.688 51.687 51.688-23.187 51.688-51.687-23.188-51.688-51.688-51.688zm0 83.375c-17.473 0-31.688-14.215-31.688-31.688s14.215-31.688 31.688-31.688 31.688 14.215 31.688 31.688-14.215 31.688-31.688 31.688z"/><path d="m265.23 387.511c-2.094-5.032-8.015-7.498-13.06-5.41-5.023 2.079-7.496 8.039-5.4 13.06 2.099 5.029 8.003 7.494 13.049 5.41 5.029-2.077 7.506-8.034 5.411-13.06z"/></g></g></g></svg>