<svg height="512" viewBox="0 0 64 64" width="512" xmlns="http://www.w3.org/2000/svg"><path d="m61 19v30a2.006 2.006 0 0 1 -2 2h-54a2.006 2.006 0 0 1 -2-2v-30h9v16a2.006 2.006 0 0 0 2 2h36a2.006 2.006 0 0 0 2-2v-16z" fill="#46f8ff"/><path d="m61 13v6h-9v-8h7a2.006 2.006 0 0 1 2 2z" fill="#ff7956"/><path d="m9 41h46v4h-46z" fill="#b2fa09"/><path d="m52 11v24a2.006 2.006 0 0 1 -2 2h-36a2.006 2.006 0 0 1 -2-2v-24z" fill="#57a4ff"/><path d="m52 5v6h-40v-6a2.006 2.006 0 0 1 2-2h36a2.006 2.006 0 0 1 2 2z" fill="#ffb655"/><path d="m44 59v2h-24v-2a2.006 2.006 0 0 1 2-2h20a2.006 2.006 0 0 1 2 2z" fill="#ff7956"/><path d="m38 51 2 6h-16l2-6z" fill="#fee9ab"/><path d="m29.66 18.34a8.014 8.014 0 0 1 2.34 5.66h-8v-8a8.014 8.014 0 0 1 5.66 2.34z" fill="#ff3051"/><path d="m29.66 29.66a8 8 0 1 1 -5.66-13.66v8h8a8.014 8.014 0 0 1 -2.34 5.66z" fill="#fee9ab"/><path d="m12 11v8h-9v-6a2.006 2.006 0 0 1 2-2z" fill="#ff7956"/><path d="m15 6h2v2h-2z"/><path d="m19 6h2v2h-2z"/><path d="m23 6h2v2h-2z"/><path d="m47 6h2v2h-2z"/><path d="m59 10h-6v-5a3 3 0 0 0 -3-3h-36a3 3 0 0 0 -3 3v5h-6a3 3 0 0 0 -3 3v36a3 3 0 0 0 3 3h19.613l-1.333 4h-1.28a3 3 0 0 0 -3 3v2a1 1 0 0 0 1 1h24a1 1 0 0 0 1-1v-2a3 3 0 0 0 -3-3h-1.28l-1.333-4h19.613a3 3 0 0 0 3-3v-36a3 3 0 0 0 -3-3zm0 2a1 1 0 0 1 1 1v5h-7v-6zm-46 0h38v23a1 1 0 0 1 -1 1h-36a1 1 0 0 1 -1-1zm1-8h36a1 1 0 0 1 1 1v5h-38v-5a1 1 0 0 1 1-1zm-9 8h6v6h-7v-5a1 1 0 0 1 1-1zm38 47v1h-22v-1a1 1 0 0 1 1-1h20a1 1 0 0 1 1 1zm-4.387-3h-13.226l1.333-4h10.56zm20.387-6h-54a1 1 0 0 1 -1-1v-29h7v15a3 3 0 0 0 3 3h36a3 3 0 0 0 3-3v-15h7v29a1 1 0 0 1 -1 1z"/><path d="m6 14h2v2h-2z"/><path d="m56 14h2v2h-2z"/><path d="m55 40h-46a1 1 0 0 0 -1 1v4a1 1 0 0 0 1 1h46a1 1 0 0 0 1-1v-4a1 1 0 0 0 -1-1zm-1 4h-44v-2h44z"/><path d="m24 33a8.948 8.948 0 0 0 5.611-1.975l1.682 1.682a1 1 0 0 0 .707.293h12v-2h-11.586l-1.389-1.389a8.958 8.958 0 0 0 0-11.222l1.389-1.389h11.586v-2h-12a1 1 0 0 0 -.707.293l-1.682 1.682a9 9 0 1 0 -5.611 16.025zm4.707-12.293.891-.891a6.947 6.947 0 0 1 1.322 3.184h-5.92v-5.92a6.947 6.947 0 0 1 3.184 1.32l-.891.891zm-5.707-3.627v6.92a1 1 0 0 0 1 1h6.92a6.947 6.947 0 0 1 -1.32 3.184l-.891-.891-1.414 1.414.891.891a6.992 6.992 0 1 1 -5.186-12.518z"/></svg>