<?xml version="1.0" standalone="no"?><!DOCTYPE svg PUBLIC "-//W3C//DTD SVG 1.1//EN" "http://www.w3.org/Graphics/SVG/1.1/DTD/svg11.dtd"><svg class="icon" height="512" viewBox="0 0 1024 1024" version="1.1" xmlns="http://www.w3.org/2000/svg"><path d="M410.667 507.732c-134.4 0-243.2-108.8-243.2-243.2s108.8-243.2 243.2-243.2 243.2 108.8 243.2 243.2h-51.2c0-108.8-89.6-192-192-192s-192 89.6-192 192 89.6 192 192 192v51.2z" fill="#000000" /><path d="M52.267 859.732h-44.8c0-224 179.2-403.2 403.2-403.2v51.2c-198.4 0-358.4 160-358.4 352z" fill="#000000" /><path d="M749.867 494.932c-38.4 0-83.2-19.2-102.4-38.4-12.8-12.8-32-44.8-32-64 0-12.8 6.4-38.4 19.2-44.8 12.8-6.4 51.2-6.4 70.4-6.4h96c19.2 0 57.6 0 70.4 6.4v0c12.8 12.8 19.2 32 19.2 44.8 0 19.2-19.2 44.8-32 64-19.2 19.2-70.4 38.4-108.8 38.4zM660.267 392.532c0 0 0 0 0 0 0 6.4 6.4 19.2 19.2 32 6.4 6.4 44.8 19.2 70.4 19.2 25.6 0 64-12.8 70.4-19.2 12.8-12.8 19.2-25.6 19.2-25.6 0 0 0 0 0 0-6.4 0-25.6 0-38.4 0h-96c-19.2-6.4-32-6.4-44.8-6.4z" fill="#000000" /><path d="M749.867 974.932c-249.6 0-268.8-102.4-268.8-230.4 0-102.4 128-268.8 268.8-268.8s268.8 166.4 268.8 268.8c0 134.4-19.2 230.4-268.8 230.4zM749.867 526.932c-108.8 0-217.6 140.8-217.6 217.6 0 108.8 0 179.2 217.6 179.2s217.6-76.8 217.6-179.2c0-76.8-108.8-217.6-217.6-217.6z" fill="#000000" /><path d="M615.467 776.532c19.2-19.2 32-44.8 38.4-64h-32v-32h38.4v-38.4c-12.8 0-19.2 0-32 0 0-12.8-6.4-19.2-6.4-32 32 0 64-6.4 96-12.8l6.4 32c-12.8 0-19.2 0-32 6.4v32h32v32h-32v32l6.4-6.4c12.8 6.4 19.2 19.2 32 32l-19.2 19.2c-6.4-6.4-12.8-19.2-19.2-25.6v102.4h-32v-89.6c-6.4 19.2-19.2 32-25.6 44.8-6.4 0-12.8-19.2-19.2-32zM705.067 840.532c19.2-19.2 38.4-44.8 51.2-70.4l32 19.2c-19.2 32-38.4 57.6-51.2 76.8-12.8-12.8-19.2-19.2-32-25.6zM737.067 757.332v-147.2h134.4v140.8h-134.4zM833.067 648.532h-64v76.8h64v-76.8zM833.067 763.732c19.2 25.6 32 51.2 51.2 76.8l-32 19.2c-19.2-32-32-57.6-44.8-76.8l25.6-19.2z" fill="#000000" /></svg>